<svg width="1728" height="1117" viewBox="0 0 1728 1117" fill="none" xmlns="http://www.w3.org/2000/svg">
<g clip-path="url(#clip0_6_136)">
<rect width="1728" height="1117" fill="white"/>
<line x1="423.5" y1="2.18557e-08" x2="423.5" y2="1117" stroke="#CCCCCC"/>
<line x1="905.5" y1="2.18557e-08" x2="905.5" y2="1117" stroke="#CCCCCC"/>
<line x1="1377.5" y1="2.18557e-08" x2="1377.5" y2="1117" stroke="#CCCCCC"/>
<circle cx="1723" cy="1025" r="2" fill="#C4C4C4"/>
<circle cx="741" cy="272" r="2" fill="#C4C4C4"/>
<circle cx="722" cy="385" r="2" fill="#C4C4C4"/>
<circle cx="703" cy="498" r="2" fill="#C4C4C4"/>
<circle cx="615" cy="335" r="2" fill="#C4C4C4"/>
<circle cx="530" cy="256" r="2" fill="#C4C4C4"/>
<circle cx="683" cy="231" r="2" fill="#C4C4C4"/>
<circle cx="495" cy="842" r="2" fill="#C4C4C4"/>
<circle cx="476" cy="895" r="2" fill="#C4C4C4"/>
<circle cx="457" cy="1008" r="2" fill="#C4C4C4"/>
<circle cx="661" cy="283" r="2" fill="#C4C4C4"/>
<circle cx="480" cy="125" r="2" fill="#C4C4C4"/>
<circle cx="633" cy="100" r="2" fill="#C4C4C4"/>
<circle cx="445" cy="711" r="2" fill="#C4C4C4"/>
<circle cx="737" cy="169" r="2" fill="#C4C4C4"/>
<circle cx="718" cy="282" r="2" fill="#C4C4C4"/>
<circle cx="699" cy="395" r="2" fill="#C4C4C4"/>
<circle cx="611" cy="212" r="2" fill="#C4C4C4"/>
<circle cx="452" cy="129" r="2" fill="#C4C4C4"/>
<circle cx="530" cy="104" r="2" fill="#C4C4C4"/>
<circle cx="683" cy="79" r="2" fill="#C4C4C4"/>
<circle cx="495" cy="690" r="2" fill="#C4C4C4"/>
<circle cx="476" cy="803" r="2" fill="#C4C4C4"/>
<circle cx="457" cy="916" r="2" fill="#C4C4C4"/>
<circle cx="438" cy="1029" r="2" fill="#C4C4C4"/>
<circle cx="661" cy="191" r="2" fill="#C4C4C4"/>
<circle cx="567" cy="96" r="2" fill="#C4C4C4"/>
<circle cx="690" cy="52" r="2" fill="#C4C4C4"/>
<circle cx="671" cy="165" r="2" fill="#C4C4C4"/>
<circle cx="652" cy="278" r="2" fill="#C4C4C4"/>
<circle cx="633" cy="391" r="2" fill="#C4C4C4"/>
<circle cx="545" cy="208" r="2" fill="#C4C4C4"/>
<circle cx="720" cy="71" r="2" fill="#C4C4C4"/>
<circle cx="46" cy="169" r="2" fill="#C4C4C4"/>
<circle cx="199" cy="144" r="2" fill="#C4C4C4"/>
<circle cx="11" cy="755" r="2" fill="#C4C4C4"/>
<circle cx="284" cy="326" r="2" fill="#C4C4C4"/>
<circle cx="265" cy="439" r="2" fill="#C4C4C4"/>
<circle cx="177" cy="256" r="2" fill="#C4C4C4"/>
<circle cx="54" cy="99" r="2" fill="#C4C4C4"/>
<circle cx="177" cy="173" r="2" fill="#C4C4C4"/>
<circle cx="281" cy="242" r="2" fill="#C4C4C4"/>
<circle cx="262" cy="355" r="2" fill="#C4C4C4"/>
<circle cx="243" cy="468" r="2" fill="#C4C4C4"/>
<circle cx="155" cy="285" r="2" fill="#C4C4C4"/>
<circle cx="149" cy="161" r="2" fill="#C4C4C4"/>
<circle cx="272" cy="117" r="2" fill="#C4C4C4"/>
<circle cx="253" cy="230" r="2" fill="#C4C4C4"/>
<circle cx="234" cy="343" r="2" fill="#C4C4C4"/>
<circle cx="215" cy="456" r="2" fill="#C4C4C4"/>
<circle cx="127" cy="273" r="2" fill="#C4C4C4"/>
<circle cx="112" cy="150" r="2" fill="#C4C4C4"/>
<circle cx="265" cy="125" r="2" fill="#C4C4C4"/>
<circle cx="388" cy="81" r="2" fill="#C4C4C4"/>
<circle cx="58" cy="849" r="2" fill="#C4C4C4"/>
<circle cx="39" cy="962" r="2" fill="#C4C4C4"/>
<circle cx="20" cy="1075" r="2" fill="#C4C4C4"/>
<circle cx="243" cy="237" r="2" fill="#C4C4C4"/>
<circle cx="96" cy="99" r="2" fill="#C4C4C4"/>
<circle cx="132" cy="126" r="2" fill="#C4C4C4"/>
<circle cx="255" cy="82" r="2" fill="#C4C4C4"/>
<circle cx="236" cy="195" r="2" fill="#C4C4C4"/>
<circle cx="217" cy="308" r="2" fill="#C4C4C4"/>
<circle cx="198" cy="421" r="2" fill="#C4C4C4"/>
<circle cx="110" cy="238" r="2" fill="#C4C4C4"/>
<circle cx="314" cy="22" r="2" fill="#C4C4C4"/>
<circle cx="112" cy="43" r="2" fill="#C4C4C4"/>
<circle cx="265" cy="18" r="2" fill="#C4C4C4"/>
<circle cx="112" cy="95" r="2" fill="#C4C4C4"/>
<circle cx="5" cy="131" r="2" fill="#C4C4C4"/>
<circle cx="183" cy="1069" r="2" fill="#C4C4C4"/>
<circle cx="175" cy="1018" r="2" fill="#C4C4C4"/>
<circle cx="199" cy="1026" r="2" fill="#C4C4C4"/>
<circle cx="352" cy="1001" r="2" fill="#C4C4C4"/>
<circle cx="195" cy="1003" r="2" fill="#C4C4C4"/>
<circle cx="244" cy="1045" r="2" fill="#C4C4C4"/>
<circle cx="397" cy="1020" r="2" fill="#C4C4C4"/>
<circle cx="54" cy="231" r="2" fill="#C4C4C4"/>
<circle cx="23" cy="493" r="2" fill="#C4C4C4"/>
<circle cx="207" cy="196" r="2" fill="#C4C4C4"/>
<circle cx="176" cy="458" r="2" fill="#C4C4C4"/>
<circle cx="19" cy="807" r="2" fill="#C4C4C4"/>
<circle cy="920" r="2" fill="#C4C4C4"/>
<circle cx="292" cy="378" r="2" fill="#C4C4C4"/>
<circle cx="261" cy="640" r="2" fill="#C4C4C4"/>
<circle cx="273" cy="491" r="2" fill="#C4C4C4"/>
<circle cx="242" cy="753" r="2" fill="#C4C4C4"/>
<circle cx="216" cy="683" r="2" fill="#C4C4C4"/>
<circle cx="185" cy="945" r="2" fill="#C4C4C4"/>
<circle cx="114" cy="600" r="2" fill="#C4C4C4"/>
<circle cx="83" cy="862" r="2" fill="#C4C4C4"/>
<circle cx="267" cy="575" r="2" fill="#C4C4C4"/>
<circle cx="236" cy="837" r="2" fill="#C4C4C4"/>
<circle cx="245" cy="687" r="2" fill="#C4C4C4"/>
<circle cx="214" cy="949" r="2" fill="#C4C4C4"/>
<path d="M756 746.5C1279.6 850.5 1694.5 494.833 1836.5 304M756 746.5L791.5 711M756 746.5L791.5 782" stroke="black" stroke-width="2"/>
</g>
<defs>
<clipPath id="clip0_6_136">
<rect width="1728" height="1117" fill="white"/>
</clipPath>
</defs>
</svg>
