<svg width="307" height="72" viewBox="0 0 307 72" fill="none" xmlns="http://www.w3.org/2000/svg">
<circle cx="37.5" cy="62.5" r="9.5" fill="#121212"/>
<path d="M4 12C38 57.2774 63.5 30.8656 72 12" stroke="#121212" stroke-width="8"/>
<path d="M114.04 29.64C115.053 29.8 115.973 30.2133 116.8 30.88C117.653 31.5467 118.32 32.3733 118.8 33.36C119.307 34.3467 119.56 35.4 119.56 36.52C119.56 37.9333 119.2 39.2133 118.48 40.36C117.76 41.48 116.707 42.3733 115.32 43.04C113.96 43.68 112.347 44 110.48 44H100.08V16.12H110.08C111.973 16.12 113.587 16.44 114.92 17.08C116.253 17.6933 117.253 18.5333 117.92 19.6C118.587 20.6667 118.92 21.8667 118.92 23.2C118.92 24.8533 118.467 26.2267 117.56 27.32C116.68 28.3867 115.507 29.16 114.04 29.64ZM103.72 28.16H109.84C111.547 28.16 112.867 27.76 113.8 26.96C114.733 26.16 115.2 25.0533 115.2 23.64C115.2 22.2267 114.733 21.12 113.8 20.32C112.867 19.52 111.52 19.12 109.76 19.12H103.72V28.16ZM110.16 41C111.973 41 113.387 40.5733 114.4 39.72C115.413 38.8667 115.92 37.68 115.92 36.16C115.92 34.6133 115.387 33.4 114.32 32.52C113.253 31.6133 111.827 31.16 110.04 31.16H103.72V41H110.16ZM123.251 32.96C123.251 30.72 123.705 28.76 124.611 27.08C125.518 25.3733 126.758 24.0533 128.331 23.12C129.931 22.1867 131.705 21.72 133.651 21.72C135.571 21.72 137.238 22.1333 138.651 22.96C140.065 23.7867 141.118 24.8267 141.811 26.08V22.08H145.491V44H141.811V39.92C141.091 41.2 140.011 42.2667 138.571 43.12C137.158 43.9467 135.505 44.36 133.611 44.36C131.665 44.36 129.905 43.88 128.331 42.92C126.758 41.96 125.518 40.6133 124.611 38.88C123.705 37.1467 123.251 35.1733 123.251 32.96ZM141.811 33C141.811 31.3467 141.478 29.9067 140.811 28.68C140.145 27.4533 139.238 26.52 138.091 25.88C136.971 25.2133 135.731 24.88 134.371 24.88C133.011 24.88 131.771 25.2 130.651 25.84C129.531 26.48 128.638 27.4133 127.971 28.64C127.305 29.8667 126.971 31.3067 126.971 32.96C126.971 34.64 127.305 36.1067 127.971 37.36C128.638 38.5867 129.531 39.5333 130.651 40.2C131.771 40.84 133.011 41.16 134.371 41.16C135.731 41.16 136.971 40.84 138.091 40.2C139.238 39.5333 140.145 38.5867 140.811 37.36C141.478 36.1067 141.811 34.6533 141.811 33ZM159.403 44.36C157.723 44.36 156.216 44.08 154.883 43.52C153.549 42.9333 152.496 42.1333 151.723 41.12C150.949 40.08 150.523 38.8933 150.443 37.56H154.203C154.309 38.6533 154.816 39.5467 155.723 40.24C156.656 40.9333 157.869 41.28 159.363 41.28C160.749 41.28 161.843 40.9733 162.643 40.36C163.443 39.7467 163.843 38.9733 163.843 38.04C163.843 37.08 163.416 36.3733 162.563 35.92C161.709 35.44 160.389 34.9733 158.603 34.52C156.976 34.0933 155.643 33.6667 154.603 33.24C153.589 32.7867 152.709 32.1333 151.963 31.28C151.243 30.4 150.883 29.2533 150.883 27.84C150.883 26.72 151.216 25.6933 151.883 24.76C152.549 23.8267 153.496 23.0933 154.723 22.56C155.949 22 157.349 21.72 158.923 21.72C161.349 21.72 163.309 22.3333 164.803 23.56C166.296 24.7867 167.096 26.4667 167.203 28.6H163.563C163.483 27.4533 163.016 26.5333 162.163 25.84C161.336 25.1467 160.216 24.8 158.803 24.8C157.496 24.8 156.456 25.08 155.683 25.64C154.909 26.2 154.523 26.9333 154.523 27.84C154.523 28.56 154.749 29.16 155.203 29.64C155.683 30.0933 156.269 30.4667 156.963 30.76C157.683 31.0267 158.669 31.3333 159.923 31.68C161.496 32.1067 162.776 32.5333 163.763 32.96C164.749 33.36 165.589 33.9733 166.283 34.8C167.003 35.6267 167.376 36.7067 167.403 38.04C167.403 39.24 167.069 40.32 166.403 41.28C165.736 42.24 164.789 43 163.563 43.56C162.363 44.0933 160.976 44.36 159.403 44.36ZM174.421 18.52C173.728 18.52 173.141 18.28 172.661 17.8C172.181 17.32 171.941 16.7333 171.941 16.04C171.941 15.3467 172.181 14.76 172.661 14.28C173.141 13.8 173.728 13.56 174.421 13.56C175.088 13.56 175.648 13.8 176.101 14.28C176.581 14.76 176.821 15.3467 176.821 16.04C176.821 16.7333 176.581 17.32 176.101 17.8C175.648 18.28 175.088 18.52 174.421 18.52ZM176.181 22.08V44H172.541V22.08H176.181ZM186.825 25.08V38C186.825 39.0667 187.051 39.8267 187.505 40.28C187.958 40.7067 188.745 40.92 189.865 40.92H192.545V44H189.265C187.238 44 185.718 43.5333 184.705 42.6C183.691 41.6667 183.185 40.1333 183.185 38V25.08H180.345V22.08H183.185V16.56H186.825V22.08H192.545V25.08H186.825ZM207.635 21.68C210.302 21.68 212.462 22.4933 214.115 24.12C215.768 25.72 216.595 28.04 216.595 31.08V44H212.995V31.6C212.995 29.4133 212.448 27.7467 211.355 26.6C210.262 25.4267 208.768 24.84 206.875 24.84C204.955 24.84 203.422 25.44 202.275 26.64C201.155 27.84 200.595 29.5867 200.595 31.88V44H196.955V22.08H200.595V25.2C201.315 24.08 202.288 23.2133 203.515 22.6C204.768 21.9867 206.142 21.68 207.635 21.68ZM231.581 21.72C233.474 21.72 235.128 22.1333 236.541 22.96C237.981 23.7867 239.048 24.8267 239.741 26.08V22.08H243.421V44.48C243.421 46.48 242.994 48.2533 242.141 49.8C241.288 51.3733 240.061 52.6 238.461 53.48C236.888 54.36 235.048 54.8 232.941 54.8C230.061 54.8 227.661 54.12 225.741 52.76C223.821 51.4 222.688 49.5467 222.341 47.2H225.941C226.341 48.5333 227.168 49.6 228.421 50.4C229.674 51.2267 231.181 51.64 232.941 51.64C234.941 51.64 236.568 51.0133 237.821 49.76C239.101 48.5067 239.741 46.7467 239.741 44.48V39.88C239.021 41.16 237.954 42.2267 236.541 43.08C235.128 43.9333 233.474 44.36 231.581 44.36C229.634 44.36 227.861 43.88 226.261 42.92C224.688 41.96 223.448 40.6133 222.541 38.88C221.634 37.1467 221.181 35.1733 221.181 32.96C221.181 30.72 221.634 28.76 222.541 27.08C223.448 25.3733 224.688 24.0533 226.261 23.12C227.861 22.1867 229.634 21.72 231.581 21.72ZM239.741 33C239.741 31.3467 239.408 29.9067 238.741 28.68C238.074 27.4533 237.168 26.52 236.021 25.88C234.901 25.2133 233.661 24.88 232.301 24.88C230.941 24.88 229.701 25.2 228.581 25.84C227.461 26.48 226.568 27.4133 225.901 28.64C225.234 29.8667 224.901 31.3067 224.901 32.96C224.901 34.64 225.234 36.1067 225.901 37.36C226.568 38.5867 227.461 39.5333 228.581 40.2C229.701 40.84 230.941 41.16 232.301 41.16C233.661 41.16 234.901 40.84 236.021 40.2C237.168 39.5333 238.074 38.5867 238.741 37.36C239.408 36.1067 239.741 34.6533 239.741 33Z" fill="black"/>
</svg>
