<svg width="1728" height="1117" viewBox="0 0 1728 1117" fill="none" xmlns="http://www.w3.org/2000/svg">
<g clip-path="url(#clip0_15_63)">
<rect width="1728" height="1117" fill="white"/>
<path d="M1034.47 -16.8366C1037.23 -16.9089 1039.53 -14.7293 1039.54 -11.9679C1039.71 20.3438 1033.25 52.4423 1020.48 82.6652C1007.06 114.446 986.922 143.531 961.228 168.259C935.533 192.987 904.782 212.874 870.729 226.784C836.676 240.694 799.988 248.355 762.761 249.33C725.533 250.304 688.495 244.573 653.761 232.464C619.027 220.354 587.277 202.103 560.324 178.754C533.371 155.404 511.743 127.412 496.674 96.3766C482.345 66.8629 474.214 35.1463 472.686 2.87038C472.555 0.112043 474.74 -2.18497 477.5 -2.25723L563.529 -4.50913C566.289 -4.58139 568.577 -2.40124 568.738 0.355522C569.946 21.1147 575.286 41.496 584.511 60.4967C594.476 81.0193 608.778 99.5293 626.601 114.97C644.424 130.41 665.419 142.479 688.387 150.486C711.356 158.494 735.848 162.284 760.465 161.639C785.082 160.995 809.343 155.929 831.861 146.731C854.379 137.533 874.714 124.382 891.705 108.03C908.696 91.6786 922.01 72.4457 930.887 51.4298C939.105 31.9726 943.372 11.3398 943.492 -9.45418C943.508 -12.2156 945.679 -14.5124 948.44 -14.5847L1034.47 -16.8366Z" fill="#F48FB1"/>
<path d="M123.8 -38.6044C125.989 -40.287 129.137 -39.8815 130.732 -37.6271C139.358 -25.4345 145.766 -11.8008 149.649 2.64827C153.964 18.7084 155.074 35.4612 152.914 51.9502C150.755 68.4391 145.369 84.3414 137.065 98.7489C128.76 113.156 117.698 125.787 104.512 135.92C91.3259 146.053 76.273 153.489 60.2128 157.804C44.1527 162.119 27.3999 163.229 10.911 161.07C-5.57802 158.911 -21.4803 153.525 -35.8878 145.22C-48.8501 137.748 -60.3741 128.045 -69.9347 116.571C-71.7024 114.45 -71.2837 111.304 -69.0941 109.621L-43.0106 89.5776C-40.821 87.8951 -37.693 88.3172 -35.8828 90.4025C-29.7833 97.4289 -22.5474 103.399 -14.466 108.057C-4.93882 113.549 5.57678 117.11 16.4804 118.538C27.384 119.966 38.462 119.232 49.082 116.378C59.702 113.525 69.656 108.607 78.3756 101.907C87.0952 95.2066 94.4097 86.8544 99.9014 77.3272C105.393 67.7999 108.955 57.2843 110.382 46.3807C111.81 35.4771 111.076 24.3991 108.223 13.7791C105.802 4.77081 101.897 -3.75825 96.678 -11.4612C95.1291 -13.7474 95.5266 -16.8785 97.7162 -18.5611L123.8 -38.6044Z" fill="#E8F5E9"/>
<path d="M-91.398 1061.55C-94.0792 1060.89 -95.7244 1058.18 -94.9853 1055.52C-89.453 1035.6 -80.3377 1016.85 -68.0725 1000.18C-54.8189 982.164 -38.147 966.937 -19.0086 955.366C0.129847 943.795 21.3599 936.107 43.4695 932.741C65.5791 929.375 88.1353 930.396 109.85 935.747C131.565 941.098 152.013 950.674 170.027 963.927C188.041 977.181 203.269 993.853 214.839 1012.99C226.41 1032.13 234.098 1053.36 237.465 1075.47C240.58 1095.93 239.937 1116.77 235.583 1136.98C235.002 1139.68 232.285 1141.31 229.604 1140.65L183.302 1129.24C180.62 1128.58 178.994 1125.88 179.535 1123.17C182.101 1110.33 182.41 1097.12 180.435 1084.15C178.209 1069.53 173.125 1055.49 165.473 1042.84C157.822 1030.18 147.753 1019.16 135.841 1010.39C123.929 1001.63 110.407 995.297 96.0476 991.759C81.6883 988.22 66.7727 987.545 52.1524 989.771C37.5321 991.997 23.4933 997.081 10.8378 1004.73C-1.81783 1012.38 -12.8424 1022.45 -21.6066 1034.36C-29.382 1044.93 -35.2431 1056.77 -38.9375 1069.33C-39.7165 1071.98 -42.4147 1073.62 -45.096 1072.96L-91.398 1061.55Z" fill="#E8F5E9"/>
<path d="M1483.51 1155.59C1480.83 1156.26 1478.11 1154.64 1477.52 1151.94C1473.31 1132.76 1472.61 1112.97 1475.47 1093.52C1478.57 1072.42 1485.8 1052.14 1496.74 1033.83C1507.68 1015.53 1522.12 999.554 1539.23 986.828C1556.35 974.102 1575.8 964.871 1596.48 959.662C1617.16 954.454 1638.67 953.37 1659.77 956.472C1680.87 959.574 1701.15 966.802 1719.45 977.742C1737.76 988.683 1753.73 1003.12 1766.46 1020.24C1778.19 1036.01 1786.95 1053.77 1792.33 1072.65C1793.09 1075.31 1791.45 1078.03 1788.78 1078.7L1745.13 1089.7C1742.45 1090.37 1739.75 1088.74 1738.95 1086.1C1735.36 1074.22 1729.74 1063.04 1722.32 1053.06C1713.9 1041.74 1703.34 1032.2 1691.23 1024.96C1679.13 1017.73 1665.72 1012.95 1651.76 1010.9C1637.81 1008.85 1623.59 1009.56 1609.92 1013.01C1596.24 1016.45 1583.38 1022.56 1572.06 1030.97C1560.74 1039.39 1551.2 1049.95 1543.96 1062.05C1536.73 1074.16 1531.95 1087.57 1529.9 1101.52C1528.09 1113.83 1528.43 1126.33 1530.9 1138.5C1531.45 1141.2 1529.84 1143.92 1527.16 1144.59L1483.51 1155.59Z" fill="#F48FB1"/>
<path d="M755.673 1067.5C779.151 1026.83 837.849 1026.83 861.328 1067.5L934.507 1194.25C957.986 1234.92 928.637 1285.75 881.679 1285.75H735.321C688.363 1285.75 659.014 1234.92 682.493 1194.25L755.673 1067.5Z" fill="#F48FB1"/>
<path d="M1641.53 -122.795C1660.4 -130.61 1681.6 -130.61 1700.47 -122.795L1782.95 -88.6268C1801.82 -80.8118 1816.81 -65.8219 1824.63 -46.9547L1858.79 35.5334C1866.61 54.4005 1866.61 75.5995 1858.79 94.4666L1824.63 176.955C1816.81 195.822 1801.82 210.812 1782.95 218.627L1700.47 252.795C1681.6 260.61 1660.4 260.61 1641.53 252.795L1559.05 218.627C1540.18 210.812 1525.19 195.822 1517.37 176.955L1483.21 94.4666C1475.39 75.5995 1475.39 54.4005 1483.21 35.5334L1517.37 -46.9547C1525.19 -65.8219 1540.18 -80.8118 1559.05 -88.6268L1641.53 -122.795Z" fill="#FCE4EC"/>
<rect x="662" y="468" width="2" height="11" fill="#C4C4C4"/>
<path d="M1380.89 67.6566C1382.36 66.8869 1382.93 65.0735 1382.16 63.6063C1381.39 62.1391 1379.57 61.5737 1378.11 62.3434L1380.89 67.6566ZM610.221 981.631C610.846 983.166 612.596 983.903 614.131 983.279L639.139 973.1C640.673 972.475 641.411 970.725 640.786 969.19C640.162 967.655 638.411 966.918 636.877 967.542L614.648 976.59L605.6 954.361C604.975 952.827 603.225 952.089 601.69 952.714C600.155 953.338 599.418 955.089 600.042 956.623L610.221 981.631ZM678.5 483.5L675.507 483.297L675.492 483.523L675.51 483.749L678.5 483.5ZM793.5 723.5L794.869 726.169L797.244 724.951L796.311 722.451L793.5 723.5ZM642.5 842.5L640.426 840.333L639.5 841.219L639.5 842.5L642.5 842.5ZM642.5 910.5L645.265 911.665L645.5 911.106L645.5 910.5L642.5 910.5ZM821 358L821 361L821.739 361L822.394 360.657L821 358ZM687 358L687 355L684.196 355L684.007 357.797L687 358ZM687 585.5L684.01 585.749L684.158 587.516L685.776 588.239L687 585.5ZM753 615L755.811 613.951L755.371 612.774L754.224 612.261L753 615ZM736 753L734.631 750.331L734.241 750.53L733.926 750.833L736 753ZM1378.11 62.3434L1366.47 68.4476L1369.26 73.7608L1380.89 67.6566L1378.11 62.3434ZM1343.2 80.6559L1319.93 92.8642L1322.72 98.1774L1345.99 85.9691L1343.2 80.6559ZM1296.66 105.073L1273.39 117.281L1276.17 122.594L1299.45 110.386L1296.66 105.073ZM1250.12 129.489L1226.85 141.698L1229.63 147.011L1252.9 134.802L1250.12 129.489ZM1203.58 153.906L1180.3 166.114L1183.09 171.427L1206.36 159.219L1203.58 153.906ZM1157.03 178.323L1133.76 190.531L1136.55 195.844L1159.82 183.636L1157.03 178.323ZM1110.49 202.739L1087.22 214.948L1090.01 220.261L1113.28 208.052L1110.49 202.739ZM1063.95 227.156L1040.68 239.364L1043.47 244.677L1066.74 232.469L1063.95 227.156ZM1017.41 251.573L994.137 263.781L996.925 269.094L1020.2 256.886L1017.41 251.573ZM970.867 275.989L947.596 288.198L950.383 293.511L973.654 281.302L970.867 275.989ZM924.325 300.406L901.054 312.614L903.842 317.927L927.112 305.719L924.325 300.406ZM877.783 324.823L854.512 337.031L857.3 342.344L880.571 330.136L877.783 324.823ZM831.242 349.239L819.606 355.343L822.394 360.657L834.029 354.553L831.242 349.239ZM821 355L809.833 355L809.833 361L821 361L821 355ZM787.5 355L765.167 355L765.167 361L787.5 361L787.5 355ZM742.833 355L720.5 355L720.5 361L742.833 361L742.833 355ZM698.167 355L687 355L687 361L698.167 361L698.167 355ZM684.007 357.797L682.944 373.485L688.931 373.89L689.993 358.203L684.007 357.797ZM680.819 404.86L678.694 436.235L684.681 436.64L686.806 405.265L680.819 404.86ZM676.569 467.61L675.507 483.297L681.493 483.703L682.556 468.015L676.569 467.61ZM675.51 483.749L676.573 496.499L682.552 496.001L681.49 483.251L675.51 483.749ZM678.698 521.999L680.823 547.499L686.802 547.001L684.677 521.501L678.698 521.999ZM682.948 572.999L684.01 585.749L689.99 585.251L688.927 572.501L682.948 572.999ZM685.776 588.239L702.276 595.614L704.724 590.136L688.224 582.761L685.776 588.239ZM735.276 610.364L751.776 617.739L754.224 612.261L737.724 604.886L735.276 610.364ZM750.189 616.049L755.252 629.612L760.873 627.513L755.811 613.951L750.189 616.049ZM765.377 656.737L775.502 683.862L781.123 681.763L770.998 654.638L765.377 656.737ZM785.627 710.987L790.689 724.549L796.311 722.451L791.248 708.888L785.627 710.987ZM792.131 720.831L777.756 728.206L780.494 733.544L794.869 726.169L792.131 720.831ZM749.006 742.956L734.631 750.331L737.369 755.669L751.744 748.294L749.006 742.956ZM733.926 750.833L722.238 762.02L726.387 766.355L738.074 755.167L733.926 750.833ZM698.863 784.395L675.488 806.77L679.637 811.105L703.012 788.73L698.863 784.395ZM652.113 829.145L640.426 840.333L644.574 844.667L656.262 833.48L652.113 829.145ZM639.5 842.5L639.5 859.5L645.5 859.5L645.5 842.5L639.5 842.5ZM639.5 893.5L639.5 910.5L645.5 910.5L645.5 893.5L639.5 893.5ZM639.735 909.335L632.36 926.835L637.89 929.165L645.265 911.665L639.735 909.335ZM617.61 961.835L610.235 979.335L615.764 981.665L623.14 964.165L617.61 961.835Z" fill="#FCE4EC"/>
</g>
<defs>
<clipPath id="clip0_15_63">
<rect width="1728" height="1117" fill="white"/>
</clipPath>
</defs>
</svg>
